<svg width="20" height="16" viewBox="0 0 20 16" fill="none" xmlns="http://www.w3.org/2000/svg">
<path d="M19.6429 1.91079C18.9046 2.23022 18.1239 2.44139 17.325 2.53772C18.1678 2.03551 18.7995 1.24543 19.1027 0.314056C18.3106 0.784321 17.4436 1.11565 16.5393 1.29364C15.9348 0.63984 15.1299 0.204633 14.2507 0.056279C13.3715 -0.0920747 12.4679 0.0548165 11.6814 0.473915C10.8949 0.893013 10.2702 1.56061 9.90515 2.37201C9.54009 3.18341 9.45538 4.09271 9.66429 4.95731C8.06283 4.87651 6.49633 4.46061 5.06654 3.7366C3.63675 3.0126 2.37565 1.99669 1.36518 0.754871C1.01076 1.37218 0.824528 2.07126 0.825 2.78262C0.823743 3.44324 0.986285 4.09391 1.29815 4.67672C1.61002 5.25952 2.06154 5.75637 2.6125 6.12302C1.97212 6.10564 1.34542 5.93425 0.785714 5.62343V5.67241C0.790514 6.59801 1.11571 7.49355 1.70629 8.20755C2.29687 8.92154 3.11659 9.41016 4.02679 9.59076C3.67641 9.69711 3.31264 9.75318 2.94643 9.75729C2.69293 9.75434 2.44006 9.73141 2.19018 9.68872C2.44938 10.4849 2.95097 11.1808 3.62516 11.6794C4.29936 12.178 5.11262 12.4546 5.95179 12.4707C4.53475 13.5828 2.78524 14.1898 0.982143 14.1948C0.653847 14.1959 0.325812 14.1763 0 14.1361C1.84096 15.3216 3.98633 15.951 6.17768 15.9483C7.68988 15.964 9.19004 15.6789 10.5906 15.1098C11.9911 14.5408 13.2639 13.699 14.3346 12.6338C15.4053 11.5687 16.2525 10.3013 16.8266 8.90593C17.4008 7.51053 17.6904 6.01499 17.6786 4.50669C17.6786 4.34016 17.6786 4.16384 17.6786 3.98751C18.4493 3.41427 19.1139 2.71153 19.6429 1.91079V1.91079Z" fill="#000032"/>
</svg>
