<?xml version="1.0" encoding="utf-8"?>
<!-- Generator: Adobe Illustrator 26.3.1, SVG Export Plug-In . SVG Version: 6.00 Build 0)  -->
<svg version="1.1" id="Livello_1" xmlns="http://www.w3.org/2000/svg" xmlns:xlink="http://www.w3.org/1999/xlink" x="0px" y="0px"
	 viewBox="0 0 831.2 774.7" style="enable-background:new 0 0 831.2 774.7;" xml:space="preserve">
<style type="text/css">
	.st0{fill:#CCCCD6;}
	
		.st1{clip-path:url(#SVGID_00000049919269293832969820000007455174564218745279_);fill:none;stroke:#CCCCD6;stroke-width:21.2071;stroke-miterlimit:10;}
</style>
<g>
	<path class="st0" d="M780.5,676.5c15.9,14.9,16.8,39.8,1.9,55.8c-14.9,15.9-39.8,16.8-55.8,1.9c-15.9-14.9-16.8-39.8-1.9-55.8
		C739.6,662.5,764.6,661.6,780.5,676.5L780.5,676.5z"/>
	<path class="st0" d="M338.1,61.5c15.9,14.9,16.8,39.8,2,55.8c-14.9,15.9-39.8,16.8-55.8,1.9c-15.9-14.9-16.8-39.8-1.9-55.8
		C297.2,47.5,322.2,46.6,338.1,61.5L338.1,61.5z"/>
	<path class="st0" d="M256.8,599.6c40,57.1,93.4,91.5,160.4,103.3c67.6,11.9,130-2.1,187.1-42c56.3-39.4,90.4-92.9,102.3-160.6
		c12-68.3-1.6-130.6-41-186.9C626.1,257.2,572.2,223,503.9,211c-67.6-11.9-129.6,1.8-185.8,41.2c-57.1,40-91.6,93.8-103.5,161.4
		C202.7,480.5,216.8,542.6,256.8,599.6L256.8,599.6z M575.5,619.9c-45.8,32.1-95.7,43.4-149.7,33.8c-54.7-9.6-97.7-37-129.3-82
		c-31.5-45-42.5-94.8-32.8-149.5c9.4-53.3,36.7-96.4,82-129.3c45-31.5,94.8-42.5,149.5-32.8c53.3,9.4,96.4,36.7,129.3,82
		c31.3,46.4,42.2,96.2,32.8,149.5C647.8,545.6,620.5,588.4,575.5,619.9L575.5,619.9L575.5,619.9z M557.9,144.4l14.5-82l-82-14.5
		l-14.5,82L557.9,144.4L557.9,144.4z"/>
	<g>
		<defs>
			<rect id="SVGID_1_" width="850.3" height="850.2"/>
		</defs>
		<clipPath id="SVGID_00000062156452664054599650000016647840836136783527_">
			<use xlink:href="#SVGID_1_"  style="overflow:visible;"/>
		</clipPath>
		
			<path style="clip-path:url(#SVGID_00000062156452664054599650000016647840836136783527_);fill:none;stroke:#CCCCD6;stroke-width:21.2071;stroke-miterlimit:10;" d="
			M277.1,100.1c-53.7,15.4-104,45.2-144.9,89c-89,95.4-108.2,230.8-60,343.5"/>
	</g>
</g>
</svg>
