<?xml version="1.0" encoding="utf-8"?>
<!-- Generator: Adobe Illustrator 26.3.1, SVG Export Plug-In . SVG Version: 6.00 Build 0)  -->
<svg version="1.1" id="Livello_1" xmlns="http://www.w3.org/2000/svg" xmlns:xlink="http://www.w3.org/1999/xlink" x="0px" y="0px"
	 viewBox="0 0 695.4 816.6" style="enable-background:new 0 0 695.4 816.6;" xml:space="preserve">
<style type="text/css">
	.st0{fill:#CCCCD6;}
</style>
<g>
	<path class="st0" d="M371.7,765.1c-8.2-16.1-1.8-35.9,14.3-44.1c16.1-8.2,35.9-1.8,44.1,14.3c8.2,16.1,1.8,35.9-14.3,44.1
		C399.6,787.7,379.9,781.3,371.7,765.1L371.7,765.1z"/>
	<path class="st0" d="M457.8,297.6c-8.2-16.1-1.8-35.9,14.3-44.1c16.1-8.2,35.9-1.8,44.1,14.3c8.2,16.1,1.8,35.9-14.3,44.1
		C485.7,320.1,466,313.7,457.8,297.6L457.8,297.6z"/>
	<path class="st0" d="M565.7,242.6c-8.2-16.1-1.8-35.9,14.3-44.1c16.1-8.2,35.9-1.8,44.1,14.3c8.2,16.1,1.8,35.9-14.3,44.1
		C593.6,265.1,573.9,258.7,565.7,242.6L565.7,242.6z"/>
	<path class="st0" d="M509.2,398.5c-8.2-16.1-1.8-35.9,14.3-44.1c16.1-8.2,35.9-1.8,44.1,14.3c8.2,16.1,1.8,35.9-14.3,44.1
		C537.1,421,517.4,414.6,509.2,398.5L509.2,398.5z"/>
	<path class="st0" d="M617.1,343.5c-8.2-16.1-1.8-35.9,14.3-44.1c16.1-8.2,35.9-1.8,44.1,14.3c8.2,16.1,1.8,35.9-14.3,44.1
		C645,366,625.3,359.6,617.1,343.5L617.1,343.5z"/>
	<path class="st0" d="M89.1,262.7c16.4,23.7,48.3,42,45.2,70.7c-1.8,17.2-16.8,30.3-32.5,37.5C86,378.1,68.6,381.2,53,388.6
		C7.5,410.4-13.5,472.1,9.3,517.1c22.8,45,85,64.6,129.4,40.8c31.9-17.1,56.3-52.9,92.4-53.1c17.6-0.1,33.9,8.7,49.5,16.9
		c47.8,25.1,94.6,56.3,153.6,45.3c114.5-61-30-139.5-76.9-194.2c-9.8-11.4-20.4-23.9-20.8-39c-0.2-9.5,3.8-18.6,8-27.2
		c15.1-30.6,33.8-59.5,55.7-85.7c26.5-31.8,60-70.3,44.9-108.9C435.7,88,408.7,74.3,383,74.6c-46.6,0.6-68.4,39.8-108.6,51.9
		c-27.5,8.3-48.8-7.2-75.7-9.5C127.8,110.8,39.2,190.7,89.1,262.7L89.1,262.7z"/>
</g>
</svg>
