<svg width="737" height="780" viewBox="0 0 737 780" fill="none" xmlns="http://www.w3.org/2000/svg">
<path d="M220.5 727.4C220.5 709.6 234.9 695.2 252.7 695.2C270.5 695.2 284.9 709.6 284.9 727.4C284.9 745.2 270.5 759.6 252.7 759.6C234.9 759.6 220.5 745.2 220.5 727.4Z" fill="#EE701C"/>
<path d="M504.7 356.1C504.7 338.3 519.1 323.9 536.9 323.9C554.7 323.9 569.1 338.3 569.1 356.1C569.1 373.9 554.7 388.3 536.9 388.3C519.1 388.3 504.7 373.9 504.7 356.1Z" fill="#484496"/>
<path d="M623.8 356.1C623.8 338.3 638.2 323.9 656 323.9C673.8 323.9 688.2 338.3 688.2 356.1C688.2 373.9 673.8 388.3 656 388.3C638.2 388.3 623.8 373.9 623.8 356.1Z" fill="#484496"/>
<path d="M504.7 467.4C504.7 449.6 519.1 435.2 536.9 435.2C554.7 435.2 569.1 449.6 569.1 467.4C569.1 485.2 554.7 499.6 536.9 499.6C519.1 499.7 504.7 485.2 504.7 467.4Z" fill="#484496"/>
<path d="M623.8 467.4C623.8 449.6 638.2 435.2 656 435.2C673.8 435.2 688.2 449.6 688.2 467.4C688.2 485.2 673.8 499.6 656 499.6C638.2 499.7 623.8 485.2 623.8 467.4Z" fill="#484496"/>
<path d="M197.2 160.9C201 189 220.8 219.3 205.3 243.1C196 257.4 177.1 262.2 160.1 261.4C143.1 260.6 126.4 255.6 109.4 255.1C59.9001 253.9 13.9001 298.6 13.7001 348.1C13.6001 397.7 59.3001 442.6 108.9 441.6C144.4 440.9 181.8 420.4 213.6 436.3C229.1 444.1 239.4 459.1 249.4 473.2C266.1 496.7 283.9 519.6 304.7 539.6C319.9 554.2 350 585.3 373.3 579.3C472.3 553.5 397.5 436 383.1 376.9C379.6 362.5 375.9 346.8 382.3 333.5C386.4 325 393.9 318.9 401.5 313.2C428.4 293.1 457.7 276.2 488.5 263C525.9 247 572.5 228.1 576.4 187.6C578.9 162.4 561.3 138.3 538.7 127.1C497.6 106.8 461 131.4 420.3 124.1C392.5 119.1 380.8 95.9999 358.2 81.9999C298.9 45.0999 185.6 75.4999 197.2 160.9Z" fill="url(#paint0_linear_752_42)"/>
<defs>
<linearGradient id="paint0_linear_752_42" x1="14" y1="323" x2="606.5" y2="323" gradientUnits="userSpaceOnUse">
<stop stop-color="#484496"/>
<stop offset="0.1875" stop-color="#5032C8"/>
<stop offset="1" stop-color="#FF7100"/>
</linearGradient>
</defs>
</svg>
