<?xml version="1.0" encoding="UTF-8"?><svg id="Livello_1" xmlns="http://www.w3.org/2000/svg" xmlns:xlink="http://www.w3.org/1999/xlink" viewBox="0 0 843.67 467.58"><defs><style>.cls-1,.cls-2,.cls-3{fill:none;}.cls-4{clip-path:url(#clippath);}.cls-5{fill:#ccccd6;}.cls-2{stroke-width:52.55px;}.cls-2,.cls-3{stroke:#ccccd6;}.cls-3{stroke-miterlimit:10;stroke-width:10.65px;}</style><clipPath id="clippath"><rect class="cls-1" x="20.51" y="-205.5" width="850.27" height="850.2"/></clipPath></defs><g class="cls-4"><line class="cls-3" x1="85.96" y1="230.02" x2="475.52" y2="230.02"/><path class="cls-2" d="M269.29,82.93c-138.08-3.9-185.52,143.55-185.52,143.55,0,0,39.59,147.92,186.88,144.5,116.35-2.7,175.48-145.62,175.48-145.62,0,0-40.97-138.6-176.84-142.44h0Zm362.18,280.9c116.35-2.7,175.48-145.62,175.48-145.62,0,0-40.97-138.6-176.84-142.44-138.08-3.9-185.52,143.55-185.52,143.55,0,0,39.59,147.93,186.88,144.51h0Z"/></g><path class="cls-5" d="M623.75,274.49c33.25,0,60.2-26.95,60.2-60.2s-26.95-60.2-60.2-60.2-60.2,26.95-60.2,60.2,26.95,60.2,60.2,60.2h0Z"/></svg>