<svg width="832" height="510" viewBox="0 0 832 510" fill="none" xmlns="http://www.w3.org/2000/svg">
<path d="M603.2 340.4C636.5 340.4 663.4 313.4 663.4 280.2C663.4 247 636.4 220 603.2 220C569.9 220 543 247 543 280.2C543 313.4 570 340.4 603.2 340.4Z" fill="#EE711B"/>
<path d="M455.1 290.3H65.5V301.5H455.1V290.3Z" fill="url(#paint0_linear_752_38)"/>
<path d="M245.9 463.2C179.2 463.2 122.3 435.3 80.8999 382.2C49.5999 342 38.3999 301.3 37.9999 299.6L35.8999 291.7L38.3999 283.9C38.9999 282.1 52.1999 242 83.9999 202.5C127.6 148.4 185.1 120.7 250.3 122.6C314.2 124.4 369.4 153 410.2 205.2C415.1 211.4 419.4 217.7 423.4 223.7C429 214.6 435.6 205 443.3 195.4C486.9 141.3 544.4 113.6 609.6 115.5C673.5 117.3 728.7 145.9 769.5 198.1C799.5 236.6 811 274.7 811.5 276.3L814.3 285.8L810.5 294.9C807.8 301.4 743.1 453.1 610.8 456.1C541.7 457.7 482.7 429.7 440.2 375.1C434 367.2 428.6 359.2 424 351.6C393.3 398.3 336.3 461.2 251.5 463.2C249.7 463.2 247.8 463.2 245.9 463.2ZM94.1999 293C98.4999 304.6 108.3 327.4 125.8 349.5C157.4 389.3 199.3 408.9 250.2 407.7C330.7 405.8 381 318.9 395.6 289.9C391 278.5 381.4 258 365.3 237.8C334.8 199.4 295.6 179.2 248.7 177.9C201.3 176.6 160.8 196.1 128.2 235.9C110 258.3 99.0999 281.3 94.1999 293ZM453.5 285.9C457.8 297.5 467.6 320.3 485.1 342.4C516.7 382.2 558.6 401.8 609.5 400.6C690 398.7 740.3 311.8 754.9 282.8C750.3 271.4 740.7 250.9 724.6 230.7C694.1 192.3 654.9 172.1 608 170.8C560.6 169.5 520.1 189 487.5 228.8C469.3 251.2 458.4 274.2 453.5 285.9Z" fill="url(#paint1_linear_752_38)"/>
<defs>
<linearGradient id="paint0_linear_752_38" x1="111" y1="296" x2="418" y2="296" gradientUnits="userSpaceOnUse">
<stop stop-color="#5032C8"/>
<stop offset="1" stop-color="#EE711B"/>
</linearGradient>
<linearGradient id="paint1_linear_752_38" x1="36" y1="289" x2="831" y2="289" gradientUnits="userSpaceOnUse">
<stop stop-color="#5032C8"/>
<stop offset="1" stop-color="#EE711B"/>
</linearGradient>
</defs>
</svg>
